<?xml version="1.0" standalone="no"?>
<!DOCTYPE svg PUBLIC "-//W3C//DTD SVG 20010904//EN"
 "http://www.w3.org/TR/2001/REC-SVG-20010904/DTD/svg10.dtd">
<svg version="1.0" xmlns="http://www.w3.org/2000/svg"
 width="512.000000pt" height="512.000000pt" viewBox="0 0 512.000000 512.000000"
 preserveAspectRatio="xMidYMid meet">
<metadata>
Created by potrace 1.11, written by Peter Selinger 2001-2013
</metadata>
<g transform="translate(0.000000,512.000000) scale(0.100000,-0.100000)"
fill="#000000" stroke="none">
<path d="M443 4171 c-26 -12 -52 -35 -70 -62 l-28 -43 -3 -1544 c-2 -1510 -2
-1545 17 -1588 14 -31 34 -52 67 -74 l48 -30 2100 0 c2052 0 2102 1 2143 20
29 13 52 34 73 66 l30 48 -3 1551 -2 1551 -28 43 c-18 27 -44 50 -70 62 -41
18 -100 19 -2137 19 -2037 0 -2096 -1 -2137 -19z m4147 -301 l0 -90 -2010 0
-2010 0 0 90 0 90 2010 0 2010 0 0 -90z m-1920 -1520 l0 -1290 -1050 0 -1050
0 0 1290 0 1290 1050 0 1050 0 0 -1290z m1760 880 l0 -90 -730 0 -730 0 0 90
0 90 730 0 730 0 0 -90z m-320 -320 l0 -90 -570 0 -570 0 0 90 0 90 570 0 570
0 0 -90z m-640 -320 l0 -90 -250 0 -250 0 0 90 0 90 250 0 250 0 0 -90z m960
0 l0 -90 -330 0 -330 0 0 90 0 90 330 0 330 0 0 -90z m160 -960 l0 -90 -490 0
-490 0 0 90 0 90 490 0 490 0 0 -90z m0 -320 l0 -90 -650 0 -650 0 0 90 0 90
650 0 650 0 0 -90z"/>
<path d="M750 2350 l0 -1110 33 0 33 0 12 89 c37 276 214 645 398 829 l63 62
44 -30 c45 -30 137 -73 137 -64 0 2 9 0 20 -6 11 -6 55 -13 97 -15 117 -7 231
25 327 90 l39 27 63 -66 c102 -107 171 -210 250 -376 41 -85 109 -269 119
-322 2 -11 6 -27 9 -36 6 -19 11 -52 21 -129 7 -52 7 -53 41 -53 l34 0 0 1110
0 1110 -870 0 -870 0 0 -1110z m1014 834 c144 -70 234 -225 242 -415 11 -278
-174 -497 -409 -485 -84 5 -158 39 -226 107 -155 154 -185 432 -67 633 100
172 297 240 460 160z"/>
</g>
</svg>
